<svg xmlns="http://www.w3.org/2000/svg" version="1.1" width="1024" height="1024" class="injected-svg" data-src="https://storage.googleapis.com/illustroke-c1d67.appspot.com/IpqcWBfhhpdtdS6pDf2SP9EpP7A3/vpfufgn3hqizjrn63nbki-1.svg" xmlns:xlink="http://www.w3.org/1999/xlink" viewBox="0 0 512 512">
<path d="M0 0 C168.96 0 337.92 0 512 0 C512 168.96 512 337.92 512 512 C343.04 512 174.08 512 0 512 C0 343.04 0 174.08 0 0 Z " fill="#FCFCFC" transform="translate(0,0)"/>
<path d="M0 0 C8.4463489 3.02194952 15.21832846 9.28683417 21.9375 15.0625 C33.10176825 24.43354382 42.80892551 31.91229462 56.4921875 24.1484375 C60.45446422 22.33393695 63.70590266 22.65370183 68 23 C68 23.66 68 24.32 68 25 C69.051875 25.309375 69.051875 25.309375 70.125 25.625 C74.28554758 27.6148271 76.77716338 30.98886625 79 35 C76.99047094 39.01905813 68.88336299 37.77378468 65 38 C63.56096961 53.99778516 63.56096961 53.99778516 72 53 C76.21011012 56.54440894 78.6824286 61.7297144 80 67 C84.16699258 66.3420538 86.31711851 65.94358579 87.8125 61.6875 C89.34682726 58.21507515 91.86259941 54 96 54 C97.35439668 56.70879335 97.06501451 59.00933268 97 62 C113.24036076 60.24428532 125.235845 57.24342301 128 39 C126.68 39 125.36 39 124 39 C124 40.98 124 42.96 124 45 C120 45 120 45 119.125 42.625 C117.56497908 38.98495119 115.70707068 38.88647342 112 38 C112 38.99 112 39.98 112 41 C108.03983895 41.06827864 104.52489108 41.09720205 100.625 40.375 C97.84583333 39.62083333 97.84583333 39.62083333 96 42 C89.90975448 35.90975448 95.35112374 27.23983511 100 22 C109.55017614 13.1319793 121.53058108 10.22541075 131.6875 19.4375 C140.37994459 29.06966832 135.79794978 46.6931128 127.5390625 55.5703125 C122.5736752 59.42151533 114.31609135 64 108 64 C112.82037869 73.20248352 112.82037869 73.20248352 122.015625 73.09375 C127.41708044 69.97290908 130.56287549 66.15568677 134 61 C138.01289499 61.20165301 140.5120384 62.7840812 143.6875 65.125 C144.98494141 66.06859375 144.98494141 66.06859375 146.30859375 67.03125 C147.19675781 67.6809375 148.08492187 68.330625 149 69 C150.74785431 70.211435 152.49779632 71.41986444 154.25 72.625 C173.67187341 86.28433954 171.71396921 106.84639837 165 128 C164.66484375 129.1034375 164.3296875 130.206875 163.984375 131.34375 C163.33615608 133.46332298 162.67627716 135.57937057 162.00390625 137.69140625 C161.26915464 140.11294171 160.59172064 142.51571889 159.96484375 144.96484375 C159.79275391 145.63636475 159.62066406 146.30788574 159.44335938 146.99975586 C158.96433051 148.89390814 158.49553088 150.79063882 158.02734375 152.6875 C157.03995368 155.87117597 155.75099613 158.19081379 154 161 C153.13627602 163.80274967 152.86047388 166.36556016 152.81054688 169.2902832 C152.79382935 170.12827957 152.77711182 170.96627594 152.7598877 171.82966614 C152.74631226 172.72763412 152.73273682 173.62560211 152.71875 174.55078125 C152.69113586 175.94903389 152.69113586 175.94903389 152.66296387 177.37553406 C152.6042962 180.35445941 152.55147504 183.33344222 152.5 186.3125 C152.43202738 190.22537273 152.35828491 194.13807767 152.28125 198.05078125 C152.26767456 198.94267654 152.25409912 199.83457184 152.2401123 200.75349426 C152.14475932 205.58717242 151.76428792 210.21549077 151 215 C149.43692535 232.24772025 148.39672443 250.62863468 151.54296875 267.6953125 C153.11044409 279.02936495 152.69162558 290.15976048 149 301 C145.18528277 314.03361721 142.05800998 327.23247546 141.79663086 340.8581543 C141.64526555 348.0135334 140.94884947 352.72147944 135.81640625 358.08203125 C133.96130822 360.0408552 132.91768477 361.86458795 131.6875 364.25 C126.72014058 372.54549022 115.94931336 374.58684022 107 374 C105.70952401 370.12857202 106.57514426 368.41448024 107.8125 364.5625 C108.16957031 363.42941406 108.52664062 362.29632813 108.89453125 361.12890625 C111.1665069 354.69833206 111.1665069 354.69833206 114.3125 352.0625 C118.0098837 348.5838964 119.22850055 343.73077205 120.88671875 339.05859375 C122 336 122 336 123.03198242 334.12573242 C127.18081224 325.01504863 125.32405429 311.07128952 125.375 301.125 C125.37956207 300.2637149 125.38412415 299.40242981 125.38882446 298.51504517 C125.41666113 283.81370112 123.76104833 270.57281148 119.2043457 256.55175781 C117.39269039 250.82140728 116.35479257 245.35514375 115.8125 239.375 C115.73064453 238.56160156 115.64878906 237.74820313 115.56445312 236.91015625 C115.36753363 234.9409613 115.18246177 232.97058715 115 231 C113.20825838 232.79174162 113.82722741 235.49286629 113.7890625 237.9140625 C113.74930298 239.7559314 113.74930298 239.7559314 113.70874023 241.63500977 C113.66728882 243.61005493 113.66728882 243.61005493 113.625 245.625 C113.2384739 261.45161244 113.2384739 261.45161244 111.4375 268.5625 C109.67815418 275.82411364 109.699398 282.98601916 109.6875 290.4375 C109.67964478 292.25326538 109.67964478 292.25326538 109.67163086 294.10571289 C109.72134337 300.44031856 110.20358898 305.93009558 112 312 C112.44961232 317.21550296 112.27309569 323.36345216 107 326 C105.18040981 326.0374744 103.36068399 326.07219477 101.54077148 326.08740234 C94.19949382 326.21484646 89.8840625 326.71020538 84.6484375 332.27734375 C79.24101248 337.92823103 70.90027197 338.51235035 63.9375 335.8125 C61.33297579 333.37600961 61.28405844 332.46956297 62 329 C64.30842268 327.07030292 66.48888578 325.49184615 69 323.875 C78.61087368 317.25234319 85.55634933 309.95590313 87 298 C87.08741455 297.31083496 87.1748291 296.62166992 87.26489258 295.91162109 C89.0762729 280.70158386 87.73175249 266.21068996 85.27099609 251.15454102 C85 249 85 249 85.0703125 245.4453125 C85.37632641 242.66276745 85.37632641 242.66276745 82.375 242.1875 C78.59677515 240.85812459 78.19472048 240.25340462 76.140625 237.01171875 C75.36114502 235.78980835 75.36114502 235.78980835 74.56591797 234.54321289 C72.13256594 230.59119729 69.73570472 226.62083873 67.375 222.625 C63.31848775 215.80042473 59.15832717 209.05929221 54.875 202.375 C50.40210871 195.38109086 46.24358024 188.26395821 42.29638672 180.96044922 C40.58378477 177.79855328 38.85708316 174.78795491 36.84375 171.80078125 C33.51817358 166.7490052 32.75146177 162.96351091 32.77294922 156.91479492 C32.77265717 156.22156128 32.77236511 155.52832764 32.77206421 154.81408691 C32.77345103 152.53608426 32.78898133 150.25841385 32.8046875 147.98046875 C32.80841994 146.3957792 32.81126582 144.81108734 32.81326294 143.22639465 C32.82088123 139.06545587 32.84051412 134.90465779 32.8626709 130.74377441 C32.88316828 126.49391584 32.89227297 122.24403443 32.90234375 117.99414062 C32.9237618 109.66269601 32.95787584 101.33136553 33 93 C36.67767542 94.77006275 39.3108562 96.92236121 42.31640625 99.66015625 C46.58720615 103.05895988 52.58582235 102.90531662 57.5 101.0625 C61.68723616 95.30505028 58.94837454 89.05885488 55 84 C55 83.34 55 82.68 55 82 C54.46375 81.731875 53.9275 81.46375 53.375 81.1875 C50.10724459 79.55362229 45 76.92400248 45 73 C44.11248047 73.16048828 44.11248047 73.16048828 43.20703125 73.32421875 C31.78980159 75.05635963 31.78980159 75.05635963 30.59765625 68.93359375 C30.37989847 63.64643484 30.74051291 59.34214174 36.125 57.125 C38.80940831 55.83788339 38.80940831 55.83788339 39 50 C30.585 50.495 30.585 50.495 22 51 C22.33 49.35 22.66 47.7 23 46 C22.37351563 46.02320313 21.74703125 46.04640625 21.1015625 46.0703125 C20.28429687 46.08835938 19.46703125 46.10640625 18.625 46.125 C17.81289062 46.14820313 17.00078125 46.17140625 16.1640625 46.1953125 C12.81830414 45.89334875 12 44.80860886 12 41.5 C13.43494563 37.91263592 15.39274135 37.84425202 19 37 C17.04848373 35.04848373 13.54831255 35.29031251 10.9375 34.9375 C9.64714844 34.76089844 8.35679687 34.58429688 7.02734375 34.40234375 C6.02832031 34.26957031 5.02929688 34.13679688 4 34 C4 27 4 27 10.15234375 26.31640625 C12.01140229 26.18113386 12.01140229 26.18113386 13 25 C11.989375 24.773125 10.97875 24.54625 9.9375 24.3125 C6.02584839 23.20286822 -1 20.55338133 -1 16 C1 14.875 1 14.875 3 14 C2.525625 13.236875 2.05125 12.47375 1.5625 11.6875 C0 9 0 9 -1 6 C1.475 6.495 1.475 6.495 4 7 C3.34 6.401875 2.68 5.80375 2 5.1875 C0 3 0 3 0 0 Z " fill="#FD911E" transform="translate(137,79)"/>
<path d="M0 0 C2.326782 20.1198208 -8.05370713 31.60033562 -26 38 C-26.66 38 -27.32 38 -28 38 C-23.17962131 47.20248352 -23.17962131 47.20248352 -13.984375 47.09375 C-8.58291956 43.97290908 -5.43712451 40.15568677 -2 35 C2.01289499 35.20165301 4.5120384 36.7840812 7.6875 39.125 C8.55246094 39.7540625 9.41742188 40.383125 10.30859375 41.03125 C11.19675781 41.6809375 12.08492188 42.330625 13 43 C14.74785431 44.211435 16.49779632 45.41986444 18.25 46.625 C37.67187341 60.28433954 35.71396921 80.84639837 29 102 C28.66484375 103.1034375 28.3296875 104.206875 27.984375 105.34375 C27.33615608 107.46332298 26.67627716 109.57937057 26.00390625 111.69140625 C25.26915464 114.11294171 24.59172064 116.51571889 23.96484375 118.96484375 C23.79275391 119.63636475 23.62066406 120.30788574 23.44335938 120.99975586 C22.96433051 122.89390814 22.49553088 124.79063882 22.02734375 126.6875 C21.03995368 129.87117597 19.75099613 132.19081379 18 135 C17.13627602 137.80274967 16.86047388 140.36556016 16.81054688 143.2902832 C16.79382935 144.12827957 16.77711182 144.96627594 16.7598877 145.82966614 C16.74631226 146.72763412 16.73273682 147.62560211 16.71875 148.55078125 C16.70034058 149.48294968 16.68193115 150.4151181 16.66296387 151.37553406 C16.6042962 154.35445941 16.55147504 157.33344222 16.5 160.3125 C16.43202738 164.22537273 16.35828491 168.13807767 16.28125 172.05078125 C16.26767456 172.94267654 16.25409912 173.83457184 16.2401123 174.75349426 C16.14475932 179.58717242 15.76428792 184.21549077 15 189 C13.43692535 206.24772025 12.39672443 224.62863468 15.54296875 241.6953125 C17.11044409 253.02936495 16.69162558 264.15976048 13 275 C9.18528277 288.03361721 6.05800998 301.23247546 5.79663086 314.8581543 C5.64526555 322.0135334 4.94884947 326.72147944 -0.18359375 332.08203125 C-2.03869178 334.0408552 -3.08231523 335.86458795 -4.3125 338.25 C-9.27985942 346.54549022 -20.05068664 348.58684022 -29 348 C-30.29047599 344.12857202 -29.42485574 342.41448024 -28.1875 338.5625 C-27.83042969 337.42941406 -27.47335938 336.29632813 -27.10546875 335.12890625 C-24.8334931 328.69833206 -24.8334931 328.69833206 -21.6875 326.0625 C-17.9901163 322.5838964 -16.77149945 317.73077205 -15.11328125 313.05859375 C-14 310 -14 310 -12.96801758 308.12573242 C-8.81918776 299.01504863 -10.67594571 285.07128952 -10.625 275.125 C-10.62043793 274.2637149 -10.61587585 273.40242981 -10.61117554 272.51504517 C-10.58333574 257.81204407 -12.25009288 244.58178656 -16.79125977 230.55615234 C-20.90953872 217.49152914 -25.06364149 203.67799707 -10 198 C-5.18706001 194.90538545 -1.42323558 191.60366165 2 187 C2.886875 186.21625 3.77375 185.4325 4.6875 184.625 C8.6945831 180.07641918 8.12745953 174.04875455 8.31640625 168.19140625 C8.35830078 166.95068359 8.40019531 165.70996094 8.44335938 164.43164062 C8.48267578 163.15482422 8.52199219 161.87800781 8.5625 160.5625 C8.62727539 158.60666992 8.62727539 158.60666992 8.69335938 156.61132812 C8.79897524 153.40764684 8.90108101 150.20389389 9 147 C8.15219971 147.02827881 7.30439941 147.05655762 6.4309082 147.08569336 C-0.26586002 147.215345 -5.58768385 147.05107764 -11.8125 144.5625 C-12.47137207 144.30098145 -13.13024414 144.03946289 -13.80908203 143.77001953 C-19.60039818 141.37697035 -25.00682507 138.34941945 -30.40576172 135.18457031 C-34.73850874 132.65058609 -39.02829389 130.69709852 -43.74609375 128.96484375 C-50.15031698 126.22334785 -57.58116532 122.55514918 -57 115 C-54.32894052 112.32894052 -46.53316018 113.92356979 -43 114 C-42.32694824 114.01256836 -41.65389648 114.02513672 -40.96044922 114.03808594 C-22.56637281 114.45935714 -5.27387706 117.10061408 11 126 C10.75660889 124.26314941 10.75660889 124.26314941 10.50830078 122.49121094 C9.99403964 118.36147288 9.87075929 114.30533022 9.8671875 110.140625 C9.86623077 109.42896179 9.86527405 108.71729858 9.86428833 107.98406982 C9.86361358 106.49507559 9.86541815 105.00607828 9.86962891 103.51708984 C9.87501944 101.24179522 9.86964364 98.9666951 9.86328125 96.69140625 C9.86394153 95.23697873 9.86522167 93.78255134 9.8671875 92.328125 C9.86831543 91.0174707 9.86944336 89.70681641 9.87060547 88.35644531 C9.97385527 85.67818447 10.19259151 83.53207152 11 81 C10.19691406 80.7834375 9.39382813 80.566875 8.56640625 80.34375 C3.95826254 78.60749432 0.07041235 76.15208315 -4.0625 73.5 C-4.89797363 72.96826172 -5.73344727 72.43652344 -6.59423828 71.88867188 C-13.71612697 67.29849357 -20.41566515 62.32925636 -27 57 C-27.83789062 56.3503125 -28.67578125 55.700625 -29.5390625 55.03125 C-32.20579667 52.83013608 -34.5890873 50.47808984 -37 48 C-37.89460938 47.1028125 -38.78921875 46.205625 -39.7109375 45.28125 C-40.59007812 44.3634375 -41.46921875 43.445625 -42.375 42.5 C-43.26960937 41.5821875 -44.16421875 40.664375 -45.0859375 39.71875 C-48.5712564 34.76817458 -46.30888012 31.52544737 -42 28 C-38.52139294 28 -38.99923782 30.03810882 -38.9375 33.125 C-38.958125 34.07375 -38.97875 35.0225 -39 36 C-22.75963924 34.24428532 -10.764155 31.24342301 -8 13 C-9.32 13 -10.64 13 -12 13 C-12 14.98 -12 16.96 -12 19 C-16 19 -16 19 -16.875 16.625 C-18.43502092 12.98495119 -20.29292932 12.88647342 -24 12 C-24 12.99 -24 13.98 -24 15 C-27.96016105 15.06827864 -31.47510892 15.09720205 -35.375 14.375 C-38.15416667 13.62083333 -38.15416667 13.62083333 -40 16 C-46.09024552 9.90975448 -40.64887626 1.23983511 -36 -4 C-24.84894728 -14.35454896 -6.78736583 -16.6488301 0 0 Z " fill="#17327D" transform="translate(273,105)"/>
<path d="M0 0 C5.67024944 2.7373618 7.37667635 3.68800688 7.3371582 10.23461914 C7.33758621 11.54680923 7.33801422 12.85899933 7.3384552 14.21095276 C7.33203318 14.91502321 7.32561115 15.61909367 7.31899452 16.34449959 C7.30063492 18.55275626 7.30328022 20.76006299 7.3120575 22.96836853 C7.33387274 29.24753277 7.32314782 35.52633933 7.28491211 41.80541992 C7.26300204 45.64652959 7.27046686 49.48671012 7.2953701 53.3277874 C7.298944 54.78568555 7.29140715 56.24365824 7.27211952 57.70143318 C7.15347446 66.85478428 8.06708116 72.80448434 14 80 C15.39384473 82.48620332 16.59829523 85.04708388 17.8125 87.625 C23.64372448 99.62427572 30.79276002 110.78873781 38 122 C40.31 125.63 42.62 129.26 45 133 C45.33 106.6 45.66 80.2 46 53 C49.63 55.31 53.26 57.62 57 60 C59.60985662 61.20944575 62.22153211 62.4165873 64.86328125 63.5546875 C68.03084334 65.01421175 71.06176273 66.63015595 74.11962891 68.30322266 C86.65554601 75.144802 97.57075153 79.17825187 112 80 C112.0992963 84.58978038 112.17166748 89.17892788 112.21972656 93.76953125 C112.23977222 95.32921244 112.26701657 96.88881913 112.30175781 98.44824219 C112.35059126 100.69745314 112.37303815 102.9456659 112.390625 105.1953125 C112.41127014 105.8861795 112.43191528 106.57704651 112.45318604 107.28884888 C112.45905936 120.12382638 95.07313796 132.86164708 83.89941406 137.20532227 C80.04847544 139.58897416 80.26628404 140.69244279 80.30078125 145.109375 C80.28519165 146.94157593 80.28519165 146.94157593 80.26928711 148.81079102 C80.28354736 150.11072998 80.29780762 151.41066895 80.3125 152.75 C80.22006192 168.66938212 80.22006192 168.66938212 78.4375 175.5625 C76.67815418 182.82411364 76.699398 189.98601916 76.6875 197.4375 C76.67964478 199.25326538 76.67964478 199.25326538 76.67163086 201.10571289 C76.72134337 207.44031856 77.20358898 212.93009558 79 219 C79.44961232 224.21550296 79.27309569 230.36345216 74 233 C72.18040981 233.0374744 70.36068399 233.07219477 68.54077148 233.08740234 C61.19949382 233.21484646 56.8840625 233.71020538 51.6484375 239.27734375 C46.24101248 244.92823103 37.90027197 245.51235035 30.9375 242.8125 C28.33297579 240.37600961 28.28405844 239.46956297 29 236 C31.30842268 234.07030292 33.48888578 232.49184615 36 230.875 C45.61087368 224.25234319 52.55634933 216.95590313 54 205 C54.08741455 204.31083496 54.1748291 203.62166992 54.26489258 202.91162109 C56.0762729 187.70158386 54.73175249 173.21068996 52.27099609 158.15454102 C52 156 52 156 52.0703125 152.4453125 C52.37632641 149.66276745 52.37632641 149.66276745 49.375 149.1875 C45.59677515 147.85812459 45.19472048 147.25340462 43.140625 144.01171875 C42.36114502 142.78980835 42.36114502 142.78980835 41.56591797 141.54321289 C39.13256594 137.59119729 36.73570472 133.62083873 34.375 129.625 C30.31848775 122.80042473 26.15832717 116.05929221 21.875 109.375 C17.40210871 102.38109086 13.24358024 95.26395821 9.29638672 87.96044922 C7.58378477 84.79855328 5.85708316 81.78795491 3.84375 78.80078125 C0.51817358 73.7490052 -0.24853823 69.96351091 -0.22705078 63.91479492 C-0.22734283 63.22156128 -0.22763489 62.52832764 -0.22793579 61.81408691 C-0.22654897 59.53608426 -0.21101867 57.25841385 -0.1953125 54.98046875 C-0.19158006 53.3957792 -0.18873418 51.81108734 -0.18673706 50.22639465 C-0.17911877 46.06545587 -0.15948588 41.90465779 -0.1373291 37.74377441 C-0.11683172 33.49391584 -0.10772703 29.24403443 -0.09765625 24.99414062 C-0.0762382 16.66269601 -0.04212416 8.33136553 0 0 Z " fill="#FDF708" transform="translate(170,172)"/>
<path d="M0 0 C0.02514475 6.04247755 0.04306495 12.08492316 0.05493164 18.12744141 C0.05989044 20.17334525 0.06665952 22.2192457 0.07543945 24.26513672 C0.12620105 36.41805918 -0.08369459 48.4982011 -0.76635742 60.63232422 C-1.06985385 66.06721121 -1.19149207 71.49431073 -1.1875 76.9375 C-1.18814453 77.9078418 -1.18878906 78.87818359 -1.18945312 79.87792969 C-1.14455946 85.96918418 -0.56226994 91.69998894 0.54296875 97.6953125 C2.11044409 109.02936495 1.69162558 120.15976048 -2 131 C-5.81471723 144.03361721 -8.94199002 157.23247546 -9.20336914 170.8581543 C-9.35473445 178.0135334 -10.05115053 182.72147944 -15.18359375 188.08203125 C-17.03869178 190.0408552 -18.08231523 191.86458795 -19.3125 194.25 C-24.27985942 202.54549022 -35.05068664 204.58684022 -44 204 C-45.29047599 200.12857202 -44.42485574 198.41448024 -43.1875 194.5625 C-42.83042969 193.42941406 -42.47335938 192.29632813 -42.10546875 191.12890625 C-39.8334931 184.69833206 -39.8334931 184.69833206 -36.6875 182.0625 C-32.9901163 178.5838964 -31.77149945 173.73077205 -30.11328125 169.05859375 C-29 166 -29 166 -27.96801758 164.12573242 C-23.81918776 155.01504863 -25.67594571 141.07128952 -25.625 131.125 C-25.62043793 130.2637149 -25.61587585 129.40242981 -25.61117554 128.51504517 C-25.58333574 113.81204407 -27.25009288 100.58178656 -31.79125977 86.55615234 C-35.90953872 73.49152914 -40.06364149 59.67799707 -25 54 C-20.18706001 50.90538545 -16.42323558 47.60366165 -13 43 C-12.113125 42.21625 -11.22625 41.4325 -10.3125 40.625 C-6.2555108 36.01976902 -6.87824621 29.9614127 -6.7890625 24.04296875 C-6.74652344 22.12774414 -6.74652344 22.12774414 -6.703125 20.17382812 C-6.66381691 18.16813288 -6.62467421 16.1624055 -6.59863281 14.15649414 C-6.57114467 12.20175543 -6.52415708 10.24732127 -6.4765625 8.29296875 C-6.45674316 7.1330542 -6.43692383 5.97313965 -6.41650391 4.77807617 C-5.7931342 0.62020752 -4.03476821 0 0 0 Z " fill="#122B79" transform="translate(288,249)"/>
<path d="M0 0 C3.61806007 1.44722403 7.02790728 2.9719843 10.4921875 4.73046875 C12.45082356 5.72199012 14.41564981 6.70128611 16.3828125 7.67578125 C17.60949513 8.28361179 18.83605516 8.8916898 20.0625 9.5 C20.6805249 9.80623291 21.2985498 10.11246582 21.93530273 10.42797852 C24.86465324 11.89049087 27.7248715 13.38789666 30.5 15.125 C36.06134888 18.10429404 42.03462254 19.98120374 48 22 C47.01 22.33 46.02 22.66 45 23 C44.79860744 26.15230513 44.79860744 26.15230513 45.1640625 29.96484375 C45.23621169 31.41976962 45.30511235 32.8748595 45.37109375 34.33007812 C45.48778267 36.62504151 45.62281071 38.91153933 45.81591797 41.20141602 C46.89548254 54.61112938 43.56663079 59.42352087 32 66 C31.13246094 66.53842529 30.26492187 67.07685059 29.37109375 67.6315918 C27.1776436 68.96076476 24.95718081 70.18172608 22.6875 71.375 C21.95466797 71.77332031 21.22183594 72.17164063 20.46679688 72.58203125 C18.32108892 73.74135973 16.16343271 74.8741574 14 76 C13.29182129 76.37672852 12.58364258 76.75345703 11.85400391 77.14160156 C11.16612793 77.49963867 10.47825195 77.85767578 9.76953125 78.2265625 C8.86037964 78.70343506 8.86037964 78.70343506 7.93286133 79.18994141 C6 80 6 80 1 81 C0.67 54.27 0.34 27.54 0 0 Z " fill="#FC911E" transform="translate(221,229)"/>
<path d="M0 0 C0.14176097 7.21817794 0.22698187 14.43667606 0.19921875 21.65625 C0.19752686 22.87892578 0.19583496 24.10160156 0.1940918 25.36132812 C-0.07292127 30.36706742 -1.10529305 34.98741348 -2.32421875 39.8515625 C-3.55092833 45.95134775 -3.30617007 52.24326501 -3.3125 58.4375 C-3.31765625 59.64801025 -3.3228125 60.85852051 -3.328125 62.10571289 C-3.27885208 68.44036234 -2.79641334 73.93008774 -1 80 C-0.55038768 85.21550296 -0.72690431 91.36345216 -6 94 C-7.81959019 94.0374744 -9.63931601 94.07219477 -11.45922852 94.08740234 C-18.80050618 94.21484646 -23.1159375 94.71020538 -28.3515625 100.27734375 C-33.75898752 105.92823103 -42.09972803 106.51235035 -49.0625 103.8125 C-51.66702421 101.37600961 -51.71594156 100.46956297 -51 97 C-48.69157732 95.07030292 -46.51111422 93.49184615 -44 91.875 C-34.38912632 85.25234319 -27.44365067 77.95590313 -26 66 C-25.86887817 64.96625244 -25.86887817 64.96625244 -25.73510742 63.91162109 C-24.0240411 49.54391366 -25.01896843 35.75307666 -27.34375 21.51171875 C-27.4571875 20.73022461 -27.570625 19.94873047 -27.6875 19.14355469 C-27.95661036 17.29762582 -28.2708965 15.45838507 -28.59375 13.62109375 C-27.60772946 9.26833203 -23.84950723 8.69446504 -20 7.375 C-18.49884397 6.82344874 -16.99883517 6.26876485 -15.5 5.7109375 C-14.38238281 5.30439941 -14.38238281 5.30439941 -13.2421875 4.88964844 C-10.28801567 3.71750099 -7.51631836 2.27392318 -4.7265625 0.75634766 C-3 0 -3 0 0 0 Z " fill="#070913" transform="translate(250,311)"/>
<path d="M0 0 C3.70251943 1.85125972 5.12072869 3.00150486 7.8125 5.9375 C16.71902151 15.03352197 27.6790995 21.96363636 38.34033203 28.82788086 C43.22154365 32.00271159 44.1306217 33.27182412 44.09765625 39.0078125 C44.09282227 40.48701172 44.09282227 40.48701172 44.08789062 41.99609375 C44.07532227 43.54490234 44.07532227 43.54490234 44.0625 45.125 C44.05798828 46.16527344 44.05347656 47.20554688 44.04882812 48.27734375 C44.03701952 50.85161962 44.02055075 53.42578146 44 56 C41.58293696 55.69035138 39.16638113 55.37738885 36.75 55.0625 C36.06808594 54.97548828 35.38617188 54.88847656 34.68359375 54.79882812 C29.42308346 54.10934377 29.42308346 54.10934377 27.01245117 53.48632812 C21.35301969 52.11867223 15.11050156 52.34870224 9.30029297 52.09960938 C7.2218297 52.00960587 5.1440491 51.90416142 3.06640625 51.796875 C1.93074219 51.76078125 0.79507813 51.7246875 -0.375 51.6875 C-1.37273437 51.65011719 -2.37046875 51.61273438 -3.3984375 51.57421875 C-6.72498748 52.11865411 -7.88273738 53.45627452 -10 56 C-12 53.33333333 -14 50.66666667 -16 48 C-16.53625 47.31164062 -17.0725 46.62328125 -17.625 45.9140625 C-22.48386076 39.15030747 -22.53882564 27.61647693 -20 20 C-14.92025075 20.328541 -14.15216197 21.84303365 -12.6875 26.5625 C-12.36136719 27.57441406 -12.03523437 28.58632812 -11.69921875 29.62890625 C-11.46847656 30.41136719 -11.23773438 31.19382813 -11 32 C-10.67 28.37 -10.34 24.74 -10 21 C-6.72983153 21 -5.97763254 23.79332882 -4.31640625 26.37109375 C-2.99986714 28.29953716 -2.99986714 28.29953716 0 29 C0 19.43 0 9.86 0 0 Z " fill="#FC8F1A" transform="translate(223,168)"/>
<path d="M0 0 C8.4463489 3.02194952 15.21832846 9.28683417 21.9375 15.0625 C33.10176825 24.43354382 42.80892551 31.91229462 56.4921875 24.1484375 C60.45446422 22.33393695 63.70590266 22.65370183 68 23 C68 23.66 68 24.32 68 25 C69.051875 25.309375 69.051875 25.309375 70.125 25.625 C74.28554758 27.6148271 76.77716338 30.98886625 79 35 C77.15473761 38.69052479 71.80982516 37.90953678 68.00390625 38.33984375 C63.93707593 39.2335945 63.13499969 40.70290843 62.7109375 44.77734375 C61.39681069 57.13930408 50.78626766 58 40 58 C39.505 54.04 39.505 54.04 39 50 C30.585 50.495 30.585 50.495 22 51 C22.33 49.35 22.66 47.7 23 46 C22.37351563 46.02320313 21.74703125 46.04640625 21.1015625 46.0703125 C20.28429687 46.08835938 19.46703125 46.10640625 18.625 46.125 C17.81289062 46.14820313 17.00078125 46.17140625 16.1640625 46.1953125 C12.81830414 45.89334875 12 44.80860886 12 41.5 C13.43494563 37.91263592 15.39274135 37.84425202 19 37 C17.04848373 35.04848373 13.54831255 35.29031251 10.9375 34.9375 C9.64714844 34.76089844 8.35679687 34.58429688 7.02734375 34.40234375 C6.02832031 34.26957031 5.02929688 34.13679688 4 34 C4 27 4 27 10.15234375 26.31640625 C12.01140229 26.18113386 12.01140229 26.18113386 13 25 C11.989375 24.773125 10.97875 24.54625 9.9375 24.3125 C6.02584839 23.20286822 -1 20.55338133 -1 16 C1 14.875 1 14.875 3 14 C2.525625 13.236875 2.05125 12.47375 1.5625 11.6875 C0 9 0 9 -1 6 C1.475 6.495 1.475 6.495 4 7 C3.34 6.401875 2.68 5.80375 2 5.1875 C0 3 0 3 0 0 Z " fill="#C93D06" transform="translate(137,79)"/>
<path d="M0 0 C0.495 6.93 0.495 6.93 1 14 C2.98 14 4.96 14 7 14 C11.21011012 17.54440894 13.6824286 22.7297144 15 28 C20.20920089 27.1774946 21.79099663 25.73357865 24 21 C24.40863281 21.72445312 24.81726563 22.44890625 25.23828125 23.1953125 C30.07845815 30.90095999 36.96758926 37.30068973 44 43 C44.87527344 43.72445312 45.75054687 44.44890625 46.65234375 45.1953125 C56.57989456 53.14246386 68.18964669 62.24598066 80.10758972 66.80648804 C82.7113795 68.44865532 82.48769701 69.3511173 82.45410156 72.35791016 C82.45379944 73.25869293 82.45349731 74.15947571 82.45318604 75.08755493 C82.43254089 76.06155243 82.41189575 77.03554993 82.390625 78.0390625 C82.38496521 79.03505463 82.37930542 80.03104675 82.37347412 81.05722046 C82.35103425 84.24696369 82.30082335 87.43559475 82.25 90.625 C82.22994487 92.78383798 82.21169239 94.94269351 82.1953125 97.1015625 C82.15114483 102.40142289 82.08415785 107.70063202 82 113 C73.86782113 112.04327307 70.19022533 108.93778936 70.58984375 100.6796875 C70.6101918 99.9798172 70.63053986 99.2799469 70.65150452 98.55886841 C70.71806055 96.32875136 70.82370968 94.10317315 70.9375 91.875 C71.04582194 89.63986928 71.14493793 87.40645207 71.21278381 85.16970825 C71.27455885 83.14592246 71.37263488 81.12334265 71.47241211 79.10107422 C70.84477153 74.98102736 69.86688616 75.01676176 66 74 C64.69841704 73.20997395 63.42344921 72.37433982 62.1796875 71.49609375 C61.13784302 70.76314087 61.13784302 70.76314087 60.07495117 70.01538086 C59.34896729 69.49468018 58.6229834 68.97397949 57.875 68.4375 C57.11872314 67.89810791 56.36244629 67.35871582 55.58325195 66.80297852 C47.27685982 60.83062856 39.47418519 54.41131337 31.9375 47.5 C31.43452393 47.04052979 30.93154785 46.58105957 30.41333008 46.10766602 C28.00991101 43.89942472 25.66387549 41.65938052 23.37109375 39.3359375 C18.50348289 34.53688454 15.53822991 32.23607329 8.640625 32.16015625 C1.60158978 31.73323252 -5.34812694 28.31993168 -11.84375 25.69140625 C-14.13598174 24.90017559 -14.13598174 24.90017559 -17.15625 24.46484375 C-27.46459384 22.64643263 -27.46459384 22.64643263 -26.421875 14.86328125 C-26 13 -26 13 -25 13 C-25 14.98 -25 16.96 -25 19 C-23.80761719 18.71125 -22.61523438 18.4225 -21.38671875 18.125 C-19.82035488 17.74982302 -18.25394628 17.37483274 -16.6875 17 C-15.90181641 16.80921875 -15.11613281 16.6184375 -14.30664062 16.421875 C-13.1706543 16.15117187 -13.1706543 16.15117187 -12.01171875 15.875 C-11.31522217 15.70742187 -10.61872559 15.53984375 -9.90112305 15.3671875 C-8 15 -8 15 -5 15 C-4.87882812 14.16855469 -4.75765625 13.33710938 -4.6328125 12.48046875 C-4.46523437 11.39378906 -4.29765625 10.30710938 -4.125 9.1875 C-3.96257812 8.10855469 -3.80015625 7.02960938 -3.6328125 5.91796875 C-2.34939759 0 -2.34939759 0 0 0 Z " fill="#FBA623" transform="translate(202,118)"/>
<path d="M0 0 C-0.14179688 0.79277344 -0.28359375 1.58554688 -0.4296875 2.40234375 C0.27088211 6.63760548 2.93421871 6.0045478 6.875 6.5625 C12.57869201 7.47570894 17.54450429 8.78891468 22.875 11.0859375 C26.53405063 12.65986737 30.16998095 14.06838149 34.1953125 13.91796875 C42.97644798 13.76267536 47.63383679 19.52729883 53.38720703 25.37011719 C60.11266387 32.16683984 67.25709386 38.35675386 74.875 44.125 C75.54378174 44.64610352 76.21256348 45.16720703 76.90161133 45.70410156 C80.21104598 48.21396533 83.21626287 50.21182944 87.1328125 51.6328125 C102.66971964 57.78731611 98.11003478 77.03673826 97 91 C90.76489556 89.5451423 90.76489556 89.5451423 90.69140625 84.1953125 C90.66626953 83.21949219 90.64113281 82.24367188 90.61523438 81.23828125 C90.58021148 79.17063338 90.54893255 77.10291855 90.52148438 75.03515625 C90.49505859 74.05675781 90.46863281 73.07835937 90.44140625 72.0703125 C90.42122437 70.72090576 90.42122437 70.72090576 90.40063477 69.34423828 C89.67042903 65.07157804 86.36600054 63.4562803 82.9375 61.1796875 C82.14577393 60.64883545 81.35404785 60.1179834 80.53833008 59.57104492 C79.70068115 59.0113501 78.86303223 58.45165527 78 57.875 C68.08033962 51.16016733 58.85910331 44.22866542 50.55859375 35.53125 C49.05986609 33.90167459 49.05986609 33.90167459 47 33 C47 42.57 47 52.14 47 62 C40.27576066 60.31894016 40.81864028 58.35093433 41.2890625 51.98046875 C43.05000188 29.91347675 43.05000188 29.91347675 25.03125 22.25390625 C24.15082031 22.22441895 23.27039063 22.19493164 22.36328125 22.16455078 C19.39483755 21.95786369 17.1907608 21.04981518 14.5625 19.6875 C9.71673986 17.51466805 5.21058455 17.80197058 -0.01953125 18.15234375 C-4.04619811 17.9465246 -7.42160454 17.06624168 -8.59375 12.87890625 C-8.36984689 7.34663369 -7.28251685 0 0 0 Z " fill="#FDF50D" transform="translate(176,135)"/>
<path d="M0 0 C0.67305176 0.01256836 1.34610352 0.02513672 2.03955078 0.03808594 C18.81718311 0.42233646 54.13153325 1.42281334 61 21 C60.67615597 22.33566984 60.34138621 23.66870576 60 25 C59.8903555 26.46461952 59.82490964 27.93296047 59.79467773 29.40136719 C59.77473251 30.2619574 59.75478729 31.12254761 59.73423767 32.00921631 C59.71752518 32.92914368 59.70081268 33.84907104 59.68359375 34.796875 C59.6524221 36.22003021 59.6524221 36.22003021 59.62062073 37.67193604 C59.55532066 40.69788482 59.49633112 43.7239192 59.4375 46.75 C59.3942962 48.80339421 59.35068131 50.85677982 59.30664062 52.91015625 C59.19965927 57.9400168 59.09833677 62.96996332 59 68 C58.67 68 58.34 68 58 68 C58 55.46 58 42.92 58 30 C56.02 30.99 54.04 31.98 52 33 C37.64549846 35.52279387 24.55201666 28.19420332 12.59423828 21.18457031 C8.26149126 18.65058609 3.97170611 16.69709852 -0.74609375 14.96484375 C-7.15031698 12.22334785 -14.58116532 8.55514918 -14 1 C-11.32894052 -1.67105948 -3.53316018 -0.07643021 0 0 Z " fill="#3C75F5" transform="translate(230,219)"/>
<path d="M0 0 C0.13556817 15.00113989 0.13624814 29.9988136 0 45 C-0.01199432 46.48128387 -0.01199432 46.48128387 -0.02423096 47.99249268 C-0.07545472 53.52084328 -0.17902957 59.04369736 -0.36212158 64.56930542 C-0.41226884 66.26954111 -0.44696286 67.97030461 -0.46600342 69.6711731 C-0.67613054 86.1689972 -0.67613054 86.1689972 -11 87 C-11.90492188 87.31324219 -12.80984375 87.62648438 -13.7421875 87.94921875 C-14.44601562 88.19285156 -15.14984375 88.43648438 -15.875 88.6875 C-16.59429687 88.93886719 -17.31359375 89.19023437 -18.0546875 89.44921875 C-22.67839946 90.75834202 -22.67839946 90.75834202 -23.94921875 87.76171875 C-26.75434867 76.08109839 -29.54948102 58.39163263 -19 50 C-17.97847743 48.85213122 -16.97947398 47.68395179 -16 46.5 C-14.13883977 44.2685314 -12.37967052 42.44859602 -10.1875 40.5 C-6.23463395 35.9824388 -6.87622786 29.82746997 -6.7890625 24.04296875 C-6.74652344 22.12774414 -6.74652344 22.12774414 -6.703125 20.17382812 C-6.66381691 18.16813288 -6.62467421 16.1624055 -6.59863281 14.15649414 C-6.57114467 12.20175543 -6.52415708 10.24732127 -6.4765625 8.29296875 C-6.45674316 7.1330542 -6.43692383 5.97313965 -6.41650391 4.77807617 C-5.7931342 0.62020752 -4.03476821 0 0 0 Z " fill="#051033" transform="translate(288,249)"/>
<path d="M0 0 C0.13867637 2.02867802 0.22508662 4.06111346 0.28125 6.09375 C0.31863281 7.28871094 0.35601562 8.48367188 0.39453125 9.71484375 C0.46484375 12.23828125 0.53515625 14.76171875 0.60546875 17.28515625 C0.64285156 18.48011719 0.68023437 19.67507813 0.71875 20.90625 C0.74904297 22.00259766 0.77933594 23.09894531 0.81054688 24.22851562 C0.88953301 27.08658638 0.88953301 27.08658638 2 30 C1.68842067 32.00350429 1.35087937 34.00300356 1 36 C0.8552803 38.67998169 0.74646954 41.34196215 0.68359375 44.0234375 C0.66281265 44.76961334 0.64203156 45.51578918 0.62062073 46.28457642 C0.5556877 48.64796508 0.49650429 51.01145664 0.4375 53.375 C0.39426116 54.98568735 0.35064523 56.59636463 0.30664062 58.20703125 C0.20006474 62.13791771 0.09864208 66.06890677 0 70 C-17.67543304 67.56891293 -17.67543304 67.56891293 -18.3671875 62.09375 C-18.20476562 60.9078125 -18.04234375 59.721875 -17.875 58.5 C-17.72614644 57.13862406 -17.58318585 55.77659426 -17.4453125 54.4140625 C-17.36700195 53.69379883 -17.28869141 52.97353516 -17.20800781 52.23144531 C-16.0198111 39.48482805 -17.28881923 27.09267854 -19.34375 14.51171875 C-19.51318115 13.33899414 -19.51318115 13.33899414 -19.68603516 12.14257812 C-19.95590753 10.30089857 -20.28122609 8.4674958 -20.6171875 6.63671875 C-19.56682802 2.14942351 -15.68152665 1.55978435 -11.625 0.125 C-10.43390625 -0.33519531 -10.43390625 -0.33519531 -9.21875 -0.8046875 C-1.27370392 -3.82111177 -1.27370392 -3.82111177 0 0 Z " fill="#0E2777" transform="translate(242,318)"/>
<path d="M0 0 C0.92621823 8.00906349 -0.49700225 26.08623346 -9.66796875 28.78515625 C-10.82232422 28.89150391 -10.82232422 28.89150391 -12 29 C-11.27275406 23.47293087 -9.66554027 18.30039859 -8 13 C-9.32 13 -10.64 13 -12 13 C-12 14.98 -12 16.96 -12 19 C-16 19 -16 19 -16.875 16.625 C-18.43502092 12.98495119 -20.29292932 12.88647342 -24 12 C-24 12.99 -24 13.98 -24 15 C-27.96016105 15.06827864 -31.47510892 15.09720205 -35.375 14.375 C-38.15416667 13.62083333 -38.15416667 13.62083333 -40 16 C-46.09024552 9.90975448 -40.64887626 1.23983511 -36 -4 C-24.84894728 -14.35454896 -6.78736583 -16.6488301 0 0 Z " fill="#060605" transform="translate(273,105)"/>
<path d="M0 0 C0.78375 0.185625 1.5675 0.37125 2.375 0.5625 C4.97089775 1.25962266 4.97089775 1.25962266 7 0 C8.23686554 1.47086713 9.46746148 2.94788084 10.65234375 4.4609375 C12.00624686 6.17328099 12.00624686 6.17328099 14.375 7.375 C16.97282952 8.98318018 18.25992865 10.36267741 20.1875 12.6875 C27.44018388 21.29210961 34.82665507 26.88266551 46 28 C43 31 43 31 40 34 C40 34.65871094 40 35.31742188 40 35.99609375 C40 44.77150306 35.60649456 44.74562184 27.84765625 45.09765625 C26.23160855 45.12078986 24.61475195 45.06871285 23 45 C23.33 43.35 23.66 41.7 24 40 C23.37351563 40.02320313 22.74703125 40.04640625 22.1015625 40.0703125 C21.28429687 40.08835938 20.46703125 40.10640625 19.625 40.125 C18.81289062 40.14820313 18.00078125 40.17140625 17.1640625 40.1953125 C13.81830414 39.89334875 13 38.80860886 13 35.5 C14.43494563 31.91263592 16.39274135 31.84425202 20 31 C18.04848373 29.04848373 14.54831255 29.29031251 11.9375 28.9375 C10.64714844 28.76089844 9.35679687 28.58429688 8.02734375 28.40234375 C7.02832031 28.26957031 6.02929688 28.13679688 5 28 C5 21 5 21 11.15234375 20.31640625 C13.01140229 20.18113386 13.01140229 20.18113386 14 19 C12.989375 18.773125 11.97875 18.54625 10.9375 18.3125 C7.02584839 17.20286822 0 14.55338133 0 10 C2 8.875 2 8.875 4 8 C3.525625 7.236875 3.05125 6.47375 2.5625 5.6875 C1 3 1 3 0 0 Z " fill="#7F2E12" transform="translate(136,85)"/>
<path d="M0 0 C3.42581077 0.61999482 6.79596572 0.87041365 10.26953125 1.09765625 C11.52378906 1.18144531 12.77804687 1.26523437 14.0703125 1.3515625 C15.49923828 1.44244141 15.49923828 1.44244141 16.95703125 1.53515625 C17.77421365 9.92748979 17.63724909 15.14863987 11.80859375 21.4765625 C9.98902984 23.49957976 8.88882542 25.38160959 7.64453125 27.78515625 C2.67717183 36.08064647 -8.09365539 38.12199647 -17.04296875 37.53515625 C-18.33344474 33.66372827 -17.46782449 31.94963649 -16.23046875 28.09765625 C-15.87339844 26.96457031 -15.51632813 25.83148438 -15.1484375 24.6640625 C-12.87646185 18.23348831 -12.87646185 18.23348831 -9.73046875 15.59765625 C-6.17421963 12.27425678 -3.82579295 -0.87049591 0 0 Z " fill="#07080B" transform="translate(261.04296875,415.46484375)"/>
<path d="M0 0 C0 0.66 0 1.32 0 2 C1.85744207 2.61067144 1.85744207 2.61067144 4 3 C4.99 3.33 5.98 3.66 7 4 C9.33299825 4.03954234 11.66708189 4.04401732 14 4 C14 4.66 14 5.32 14 6 C14.53625 6.268125 15.0725 6.53625 15.625 6.8125 C24.36782327 11.18391163 31.44298515 19.80754555 29 30 C23.34064019 37.25105476 15.3582522 34.50376197 9 30 C9 29.34 9 28.68 9 28 C7.67661368 27.31379969 6.34050052 26.65213539 5 26 C0.37728002 22.97914027 -1.25770101 19.83108092 -2.8125 14.6875 C-3.02841797 14.04876953 -3.24433594 13.41003906 -3.46679688 12.75195312 C-5.06544735 7.74284829 -8.4245536 -2.98935773 0 0 Z " fill="#5C98FB" transform="translate(168,148)"/>
<path d="M0 0 C3.72946142 1.19541082 3.82748833 2.77051796 4.95703125 6.41015625 C5.28316406 7.42207031 5.60929688 8.43398437 5.9453125 9.4765625 C6.17605469 10.25902344 6.40679687 11.04148438 6.64453125 11.84765625 C6.97453125 8.21765625 7.30453125 4.58765625 7.64453125 0.84765625 C10.95136823 0.84765625 11.50817702 3.46597368 13.20703125 5.96875 C14.63294015 7.83250593 16.05567816 9.15221163 17.89453125 10.59765625 C22.27935247 14.18523725 21.90441585 18.2220235 22.20703125 23.53515625 C22.25021484 24.23705078 22.29339844 24.93894531 22.33789062 25.66210938 C22.44370485 27.39040831 22.54459706 29.11900735 22.64453125 30.84765625 C21.896875 30.8734375 21.14921875 30.89921875 20.37890625 30.92578125 C12.95497454 31.11698559 12.95497454 31.11698559 7.64453125 35.84765625 C5.64453125 33.18098958 3.64453125 30.51432292 1.64453125 27.84765625 C1.10828125 27.15929687 0.57203125 26.4709375 0.01953125 25.76171875 C-3.25779702 21.19952882 -7.26361432 -0.469786 0 0 Z " fill="#0B0602" transform="translate(205.35546875,188.15234375)"/>
<path d="M0 0 C5.21500252 0.5668481 8 1.07068017 8 7 C9.32 7 10.64 7 12 7 C12 5.02 12 3.04 12 1 C13.32 1 14.64 1 16 1 C15.16121403 16.65733806 4.27920445 23.46837604 -10.5 24.6875 C-16.29843442 24.45120016 -16.79023242 21.24418953 -17 16 C-17.06574219 14.89269531 -17.13148438 13.78539062 -17.19921875 12.64453125 C-17.49893607 3.33262405 -17.49893607 3.33262405 -14 1 C-11.3125 1.3125 -11.3125 1.3125 -8 2 C-6.54325728 2.19948189 -5.08480283 2.38680692 -3.625 2.5625 C-1.830625 2.7790625 -1.830625 2.7790625 0 3 C0 2.01 0 1.02 0 0 Z " fill="#FBB380" transform="translate(249,117)"/>
<path d="M0 0 C11.01554106 0 11.01554106 0 11.140625 7.0078125 C11.17039486 9.26169425 11.19612988 11.51557647 11.21972656 13.76953125 C11.23977222 15.32921244 11.26701657 16.88881913 11.30175781 18.44824219 C11.35059126 20.69745314 11.37303815 22.9456659 11.390625 25.1953125 C11.41127014 25.8861795 11.43191528 26.57704651 11.45318604 27.28884888 C11.46029174 42.81694297 -10.18303705 54.71001083 -22.796875 59.70703125 C-29.03447573 62.22489203 -35.25967877 64.98957734 -41.1875 68.17578125 C-43 69 -43 69 -46 69 C-45.32486545 64.32160286 -43.32997165 64.3050037 -39 63.03515625 C-30.19332027 59.99639306 -21.16060159 55.4813315 -13.94140625 49.5703125 C-10.54902628 46.82637538 -6.90433603 44.41554226 -3.3203125 41.9296875 C1.36903208 38.02979487 1.34454654 33.80723879 1.484375 27.98828125 C1.52053925 26.83503609 1.52053925 26.83503609 1.55743408 25.65849304 C1.6056104 24.03898074 1.64902774 22.41932075 1.68798828 20.79956055 C1.75005293 18.31037714 1.83304717 15.82248116 1.91796875 13.33398438 C1.96219469 11.7604515 2.00520606 10.18688391 2.046875 8.61328125 C2.07279724 7.86540848 2.09871948 7.11753571 2.12542725 6.34700012 C2.60672915 2.3852267 2.60672915 2.3852267 0 0 Z " fill="#F38E16" transform="translate(271,252)"/>
<path d="M0 0 C0.495 6.93 0.495 6.93 1 14 C2.98 14 4.96 14 7 14 C12.17841212 18.1404733 14.36206537 24.79308984 16 31 C6.36649203 34.21116932 -2.92944369 29.29867851 -11.84375 25.69140625 C-14.13598174 24.90017559 -14.13598174 24.90017559 -17.15625 24.46484375 C-27.46459384 22.64643263 -27.46459384 22.64643263 -26.421875 14.86328125 C-26 13 -26 13 -25 13 C-25 14.98 -25 16.96 -25 19 C-23.80761719 18.71125 -22.61523438 18.4225 -21.38671875 18.125 C-19.82035488 17.74982302 -18.25394628 17.37483274 -16.6875 17 C-15.90181641 16.80921875 -15.11613281 16.6184375 -14.30664062 16.421875 C-13.1706543 16.15117187 -13.1706543 16.15117187 -12.01171875 15.875 C-11.31522217 15.70742187 -10.61872559 15.53984375 -9.90112305 15.3671875 C-8 15 -8 15 -5 15 C-4.87882812 14.16855469 -4.75765625 13.33710938 -4.6328125 12.48046875 C-4.46523437 11.39378906 -4.29765625 10.30710938 -4.125 9.1875 C-3.96257812 8.10855469 -3.80015625 7.02960938 -3.6328125 5.91796875 C-2.34939759 0 -2.34939759 0 0 0 Z " fill="#FB9331" transform="translate(202,118)"/>
<path d="M0 0 C0.33 13.53 0.66 27.06 1 41 C-7.14096711 39.37180658 -10.97540155 37.15275969 -10.5859375 28.609375 C-10.57744781 27.90476135 -10.56895813 27.20014771 -10.56021118 26.47418213 C-10.52671308 24.23120919 -10.45146048 21.99187901 -10.375 19.75 C-10.34489485 18.22661457 -10.31751997 16.70317256 -10.29296875 15.1796875 C-10.09494561 4 -10.09494561 4 -7 4 C-0.75 0 -0.75 0 0 0 Z " fill="#FB9911" transform="translate(283,190)"/>
<path d="M0 0 C3.42581077 0.61999482 6.79596572 0.87041365 10.26953125 1.09765625 C11.52378906 1.18144531 12.77804687 1.26523437 14.0703125 1.3515625 C15.49923828 1.44244141 15.49923828 1.44244141 16.95703125 1.53515625 C17.89722874 15.8052648 17.89722874 15.8052648 11.95703125 19.53515625 C10.96703125 19.53515625 9.97703125 19.53515625 8.95703125 19.53515625 C9.28703125 18.21515625 9.61703125 16.89515625 9.95703125 15.53515625 C9.19519531 15.75171875 8.43335938 15.96828125 7.6484375 16.19140625 C1.20068739 17.93012538 -4.37083751 18.86876281 -11.04296875 18.53515625 C-10.7284375 18.08527344 -10.41390625 17.63539063 -10.08984375 17.171875 C-7.63217369 13.47796729 -3.12217726 -0.7103998 0 0 Z " fill="#05060B" transform="translate(261.04296875,415.46484375)"/>
<path d="M0 0 C7.28382721 1.33829355 14.37795195 3.10259151 21.5 5.125 C22.56500732 5.42559326 23.63001465 5.72618652 24.72729492 6.03588867 C32.9485162 8.37529959 41.13804555 10.81487774 49.3125 13.3125 C50.42109375 13.64975098 51.5296875 13.98700195 52.671875 14.33447266 C54.22068359 14.81279541 54.22068359 14.81279541 55.80078125 15.30078125 C56.70997314 15.58091064 57.61916504 15.86104004 58.5559082 16.1496582 C60.82526408 16.93920635 62.88278209 17.87026166 65 19 C62.86238107 25.41285679 53.03894812 21.41018252 47.90625 19.94921875 C45.6326106 19.20661878 43.43652067 18.39932093 41.2109375 17.53125 C37.67115037 16.18528054 34.13438282 15.23444445 30.45239258 14.36474609 C22.60774704 12.50336057 15.20116601 10.11227152 7.8125 6.875 C7.0282666 6.53831299 6.2440332 6.20162598 5.43603516 5.85473633 C0 3.37685012 0 3.37685012 0 0 Z " fill="#5590FE" transform="translate(217,220)"/>
<path d="M0 0 C0.3403125 0.7734375 0.3403125 0.7734375 0.6875 1.5625 C2.4975553 4.92403127 4.73996404 7.92911144 7 11 C6.01 11.33 5.02 11.66 4 12 C3.401875 12.9075 2.80375 13.815 2.1875 14.75 C-2.18705982 21.24934601 -7.87908401 26.53778625 -16 24 C-19.04625681 20.95374319 -20.48004388 17.97321862 -22 14 C-21.28714844 13.68546875 -20.57429687 13.3709375 -19.83984375 13.046875 C-13.30246227 10.13156175 -13.30246227 10.13156175 -7 6.75 C-4 5 -4 5 -1 4 C-0.26676204 1.98491642 -0.26676204 1.98491642 0 0 Z " fill="#F7B37A" transform="translate(267,129)"/>
<path d="M0 0 C0.495 0.99 0.495 0.99 1 2 C1.66 2.33 2.32 2.66 3 3 C-10.42857143 11 -10.42857143 11 -15 11 C-14.484375 11.721875 -13.96875 12.44375 -13.4375 13.1875 C-11.37808228 17.21679553 -11.65049493 19.55410171 -14.75 22.875 C-20.81610166 25.90805083 -24.57363595 20.93608041 -28.375 16.75 C-28.93316406 16.17636719 -29.49132812 15.60273438 -30.06640625 15.01171875 C-34.1987012 10.53251509 -35.30091623 7.74625486 -31.0625 2.6875 C-29 1 -29 1 -27 1 C-25.64560332 3.70879335 -25.93498549 6.00933268 -26 9 C-11.67167738 7.65721375 -11.67167738 7.65721375 0 0 Z " fill="#0D38A6" transform="translate(260,132)"/>
<path d="M0 0 C0.33 0.99 0.66 1.98 1 3 C1.94875 2.814375 2.8975 2.62875 3.875 2.4375 C7 2 7 2 9 3 C7.98694204 11.71229848 -2.56826453 19.68365423 -11 19 C-11.825 19.33 -12.65 19.66 -13.5 20 C-16.1927955 21.0771182 -18.12923119 21.16404393 -21 21 C-19.50211332 16.73678407 -16.39890463 15.044337 -12.75 12.75 C-7.33807147 9.20379198 -3.361443 5.63310312 0 0 Z " fill="#0C3B9A" transform="translate(220,389)"/>
<path d="M0 0 C-1.2630056 5.52564949 -3.22173942 7.33250436 -8 10.25 C-12.24546272 12.81617359 -12.24546272 12.81617359 -16 16 C-19.65313136 16 -19.72843703 15.58018815 -21.75 12.75 C-22.19859375 12.14671875 -22.6471875 11.5434375 -23.109375 10.921875 C-24.79987167 7.27396113 -23.10870904 5.16306356 -21 2 C-19.08203125 1.77734375 -19.08203125 1.77734375 -16.8125 1.9375 C-10.93601902 2.15444874 -5.85367456 -0.35476815 0 0 Z " fill="#0D3A9D" transform="translate(271,431)"/>
<path d="M0 0 C7.94791382 2.21802246 15 7.09411181 15 16 C10.02936879 16.91297308 5.97063121 16.91297308 1 16 C1 13.54563482 5.21006018 14.53221554 7.15234375 14.31640625 C9.01140229 14.18113386 9.01140229 14.18113386 10 13 C8.989375 12.773125 7.97875 12.54625 6.9375 12.3125 C3.02584839 11.20286822 -4 8.55338133 -4 4 C-2.66666667 3.33333333 -1.33333333 2.66666667 0 2 C0 1.34 0 0.68 0 0 Z " fill="#893622" transform="translate(140,91)"/>
<path d="M0 0 C0.73538435 5.14769043 -1.2705557 6.67593008 -5 10 C-9.6584202 13.39654302 -9.6584202 13.39654302 -10 18 C-17.28571429 21.42857143 -17.28571429 21.42857143 -22 21 C-20.50215955 16.73691563 -17.39899296 15.04407334 -13.75 12.75 C-8.82643208 9.5277803 -5.19485451 6.4426517 -1.953125 1.43359375 C-1 0 -1 0 0 0 Z " fill="#102762" transform="translate(221,389)"/>
<path d="M0 0 C-0.474375 0.61875 -0.94875 1.2375 -1.4375 1.875 C-3.02417441 3.90705546 -3.02417441 3.90705546 -4 6 C-5.828125 6.859375 -5.828125 6.859375 -8.25 7.75 C-13.71323953 9.83123411 -18.94926553 12.29261415 -24.21484375 14.828125 C-27 16 -27 16 -30 16 C-29.32653508 11.33317269 -27.35162466 11.30441475 -23.0234375 10.05078125 C-19.03210849 8.66361393 -15.33381772 6.83307561 -11.5625 4.9375 C-10.852146 4.58461914 -10.14179199 4.23173828 -9.40991211 3.86816406 C-0.89055641 -0.4452782 -0.89055641 -0.4452782 0 0 Z " fill="#F2A903" transform="translate(255,305)"/>
<path d="M0 0 C1.32 0 2.64 0 4 0 C3 6 3 6 0.98828125 5.74609375 C-9.32732415 4.1893016 -9.32732415 4.1893016 -15 12 C-16.9016352 12 -16.46121817 9.16760949 -16.6875 7.625 C-16.81511719 6.81289062 -16.94273437 6.00078125 -17.07421875 5.1640625 C-17 3 -17 3 -14 1 C-11.3125 1.3125 -11.3125 1.3125 -8 2 C-6.54325728 2.19948189 -5.08480283 2.38680692 -3.625 2.5625 C-1.830625 2.7790625 -1.830625 2.7790625 0 3 C0 2.01 0 1.02 0 0 Z " fill="#E7945C" transform="translate(249,117)"/>
<path d="M0 0 C1.32 0 2.64 0 4 0 C3.56826496 6.15222436 2.34594658 9.81917949 -1 15 C-4.32382587 10.66457495 -5.12018668 8.52858726 -5 3 C-4.67 3.99 -4.34 4.98 -4 6 C-2.68 6 -1.36 6 0 6 C0 4.02 0 2.04 0 0 Z " fill="#E68F57" transform="translate(261,118)"/>
<path d="M0 0 C1 0 1 0 1.07592773 2.4309082 C1.19182043 6.05827074 1.31457751 9.68536917 1.4375 13.3125 C1.47681641 14.57513672 1.51613281 15.83777344 1.55664062 17.13867188 C1.59853516 18.34716797 1.64042969 19.55566406 1.68359375 20.80078125 C1.72025146 21.91622314 1.75690918 23.03166504 1.79467773 24.1809082 C1.88931209 27.07873571 1.88931209 27.07873571 3 30 C2.68266482 32.00260068 2.34502975 34.00198459 2 36 C1.73606026 39.454821 1.588103 42.9135998 1.4375 46.375 C1.39431641 47.30183594 1.35113281 48.22867188 1.30664062 49.18359375 C1.20123814 51.45560294 1.09911394 53.72770925 1 56 C0.67 56 0.34 56 0 56 C0 37.52 0 19.04 0 0 Z " fill="#051857" transform="translate(241,318)"/>
<path d="M0 0 C0.33 4.62 0.66 9.24 1 14 C2.98 14 4.96 14 7 14 C7 18.12310563 -0.93299366 16.32216561 -5 17 C-3.21052632 0 -3.21052632 0 0 0 Z " fill="#B59DB7" transform="translate(202,118)"/>
<path d="M0 0 C0.33 0.66 0.66 1.32 1 2 C1.66 2.33 2.32 2.66 3 3 C-14.35211268 13.64788732 -14.35211268 13.64788732 -17 11 C-18.51469448 10.76807135 -20.03754562 10.58784762 -21.5625 10.4375 C-22.38878906 10.35371094 -23.21507812 10.26992187 -24.06640625 10.18359375 C-24.70449219 10.12300781 -25.34257812 10.06242188 -26 10 C-26 9 -26 9 -23.25390625 8.703125 C-10.38428729 7.16150976 -10.38428729 7.16150976 0 0 Z " fill="#554B57" transform="translate(260,132)"/>
<path d="M0 0 C0.78375 0.185625 1.5675 0.37125 2.375 0.5625 C4.97089775 1.25962266 4.97089775 1.25962266 7 0 C8.29479707 1.48901663 9.58450298 2.98578134 10.78125 4.5546875 C11.95841435 6.14399051 11.95841435 6.14399051 14 7 C13.625 9.0625 13.625 9.0625 13 11 C12.443125 10.54625 11.88625 10.0925 11.3125 9.625 C9.07697094 7.90954903 9.07697094 7.90954903 6.5 7.0625 C3.25062356 5.68151501 0 3.8114833 0 0 Z " fill="#7E3A2C" transform="translate(136,85)"/>
<path d="M0 0 C3.64458191 0.62837619 7 1.85349966 7 6 C6.34 6 5.68 6 5 6 C4.67 6.99 4.34 7.98 4 9 C0.54126866 6.08169543 -0.50626853 4.55641677 0 0 Z " fill="#145EC6" transform="translate(240,142)"/>
<path d="M0 0 C4.99275057 1.27721526 7.57611908 3.17330957 11 7 C10.18789062 6.75443359 10.18789062 6.75443359 9.359375 6.50390625 C6.59777407 5.91409413 4.07181861 5.90390692 1.25 5.9375 C0.26515625 5.94652344 -0.7196875 5.95554687 -1.734375 5.96484375 C-2.85585937 5.98224609 -2.85585937 5.98224609 -4 6 C-4 3.0335773 -2.47886622 3.23943311 0 2 C0 1.34 0 0.68 0 0 Z " fill="#A28F9A" transform="translate(140,91)"/>
<path d="M0 0 C0.84603293 5.9222305 -2.55842868 9.18614289 -8 11 C-7.04808154 8.05770659 -3.76367082 0 0 0 Z " fill="#191F35" transform="translate(221,389)"/>
<path d="M0 0 C-0.7115625 0.928125 -0.7115625 0.928125 -1.4375 1.875 C-3.02417441 3.90705546 -3.02417441 3.90705546 -4 6 C-6.68157225 6.2834643 -9.2983626 6.08576627 -12 6 C-2.54545455 -1.27272727 -2.54545455 -1.27272727 0 0 Z " fill="#FCA709" transform="translate(255,305)"/>
<path d="M0 0 C1.32 0 2.64 0 4 0 C3.67 1.98 3.34 3.96 3 6 C1.33226441 5.69325577 -0.33417748 5.37946901 -2 5.0625 C-2.928125 4.88847656 -3.85625 4.71445313 -4.8125 4.53515625 C-7 4 -7 4 -7 3 C-4.69 3 -2.38 3 0 3 C0 2.01 0 1.02 0 0 Z " fill="#B07A5E" transform="translate(249,117)"/>
<path d="M0 0 C-2.05233685 2.2477975 -3.00667261 3.0022242 -6 4 C-6.33 3.67 -6.66 3.34 -7 3 C-8.51469448 2.76807135 -10.03754562 2.58784762 -11.5625 2.4375 C-12.38878906 2.35371094 -13.21507812 2.26992187 -14.06640625 2.18359375 C-14.70449219 2.12300781 -15.34257812 2.06242188 -16 2 C-16 -0.51241217 -2.32304018 -0.06113264 0 0 Z " fill="#4B4E6E" transform="translate(250,140)"/>
<path d="M0 0 C0 3.63945867 -3.95629902 2.661811 -7 3 C-14 2.22222222 -14 2.22222222 -14 1 C-10.92382812 0.70703125 -10.92382812 0.70703125 -7.84765625 0.4140625 C-1.99466834 -0.89760075 -1.99466834 -0.89760075 0 0 Z " fill="#896668" transform="translate(155,105)"/>
<path d="M0 0 C2.12038635 2.61514317 4.13091744 5.19637616 6 8 C4.02 7.34 2.04 6.68 0 6 C-0.33 6.66 -0.66 7.32 -1 8 C-0.67 5.36 -0.34 2.72 0 0 Z " fill="#C3BBBE" transform="translate(136,79)"/>
<path d="M0 0 C1.32 0 2.64 0 4 0 C4 0.66 4 1.32 4 2 C5.98 2 7.96 2 10 2 C10 2.33 10 2.66 10 3 C6.7 3 3.4 3 0 3 C0 2.01 0 1.02 0 0 Z " fill="#E99552" transform="translate(234,138)"/>
<path d="M0 0 C1.65 1.65 3.3 3.3 5 5 C3.35 5.33 1.7 5.66 0 6 C0 4.02 0 2.04 0 0 Z " fill="#69230D" transform="translate(177,131)"/>
<path d="M0 0 C3.73639216 1.24546405 4.18756513 2.63404953 6 6 C1.91654209 5.18330842 0 4.56277606 0 0 Z " fill="#94331D" transform="translate(137,79)"/>
</svg>